Coordinates
version=1
nRows=60
nColumns=12
inDegrees=yes

Units are S.I. units (second, meters, Newtons, ...)
Angles are in degrees

endheader
time	SC_y	SC_z	SC_x	AC_y	AC_z	AC_x	GH_y	GH_z	GH_yy	EL_x	PS_y
       0.0              -17.83          10.26          65.88          44.41          9.062           1.28         -32.71         -3.854         -123.5          61.87          8.158
   0.01452              -17.84          10.26          65.88          44.41           9.06          1.279         -32.71         -3.849         -123.5          61.88           8.17
   0.02904              -17.85          10.26          65.88          44.41          9.058          1.278          -32.7         -3.844         -123.5          61.88          8.182
   0.04356              -17.85          10.26          65.88          44.41          9.056          1.277          -32.7         -3.838         -123.4          61.89          8.195
   0.05809              -17.86          10.25          65.88          44.41          9.053          1.275         -32.69         -3.832         -123.4          61.89          8.208
   0.07261              -17.87          10.25          65.89          44.41          9.051          1.274         -32.68         -3.825         -123.3           61.9          8.223
   0.08713              -17.88          10.25          65.89          44.41          9.049          1.272         -32.67         -3.818         -123.2          61.91          8.238
    0.1017              -17.88          10.25          65.89          44.41          9.046           1.27         -32.67          -3.81         -123.2          61.91          8.255
    0.1162              -17.89          10.25          65.89          44.42          9.043          1.269         -32.66         -3.802         -123.1          61.92          8.273
    0.1307               -17.9          10.24           65.9          44.42           9.04          1.267         -32.65         -3.794         -123.1          61.93          8.292
    0.1452              -17.91          10.24           65.9          44.42          9.037          1.264         -32.64         -3.784         -123.0          61.94          8.313
    0.1597              -17.93          10.24           65.9          44.42          9.033          1.262         -32.63         -3.774         -122.9          61.95          8.335
    0.1743              -17.94          10.23          65.91          44.43          9.029           1.26         -32.62         -3.763         -122.8          61.96          8.359
    0.1888              -17.95          10.23          65.91          44.43          9.025          1.257         -32.61         -3.752         -122.7          61.97          8.385
    0.2033              -17.97          10.23          65.92          44.43           9.02          1.254         -32.59         -3.739         -122.6          61.98          8.412
    0.2178              -17.98          10.22          65.92          44.43          9.016          1.251         -32.58         -3.725         -122.5          61.99          8.443
    0.2323               -18.0          10.22          65.93          44.44           9.01          1.248         -32.56          -3.71         -122.4          62.01          8.476
    0.2469              -18.02          10.21          65.93          44.44          9.004          1.244         -32.55         -3.694         -122.2          62.02          8.511
    0.2614              -18.04          10.21          65.94          44.44          8.998           1.24         -32.53         -3.676         -122.1          62.04          8.551
    0.2759              -18.06           10.2          65.94          44.45          8.991          1.236         -32.51         -3.657         -121.9          62.06          8.593
    0.2904              -18.08          10.19          65.95          44.45          8.984          1.231         -32.49         -3.636         -121.8          62.08           8.64
     0.305              -18.11          10.19          65.96          44.46          8.975          1.226         -32.46         -3.612         -121.6           62.1          8.692
    0.3195              -18.14          10.18          65.97          44.46          8.966           1.22         -32.44         -3.586         -121.4          62.12          8.749
     0.334              -18.17          10.17          65.98          44.47          8.956          1.213         -32.41         -3.557         -121.1          62.15          8.813
    0.3485              -18.21          10.16          65.99          44.48          8.944          1.206         -32.38         -3.525         -120.9          62.18          8.883
     0.363              -18.25          10.15           66.0          44.48          8.932          1.198         -32.34          -3.49         -120.6          62.21          8.962
    0.3776              -18.29          10.14          66.02          44.49          8.917          1.189          -32.3          -3.45         -120.3          62.25           9.05
    0.3921              -18.34          10.12          66.03           44.5          8.901          1.179         -32.25         -3.405         -119.9          62.29          9.149
    0.4066               -18.4          10.11          66.05          44.51          8.883          1.167          -32.2         -3.354         -119.5          62.34          9.261
    0.4211              -18.47          10.09          66.07          44.53          8.863          1.154         -32.14         -3.296         -119.0          62.39          9.388
    0.4356              -18.54          10.07          66.09          44.54          8.839          1.139         -32.07          -3.23         -118.5          62.45          9.533
    0.4502              -18.63          10.05          66.12          44.56          8.812          1.122          -32.0         -3.155         -117.9          62.52          9.699
    0.4647              -18.72          10.02          66.15          44.58          8.781          1.103         -31.91         -3.067         -117.2           62.6          9.891
    0.4792              -18.84          9.991          66.18           44.6          8.745           1.08          -31.8         -2.966         -116.4           62.7          10.11
    0.4937              -18.97          9.954          66.22          44.62          8.703          1.053         -31.68         -2.847         -115.4          62.81          10.38
    0.5083              -19.13          9.912          66.27          44.65          8.653          1.022         -31.54         -2.708         -114.3          62.94          10.68
    0.5228              -19.32          9.861          66.33          44.69          8.594         0.9841         -31.37         -2.541         -112.9          63.09          11.05
    0.5373              -19.54            9.8          66.39          44.73          8.523         0.9391         -31.17         -2.342         -111.3          63.28          11.49
    0.5518              -19.82          9.727          66.48          44.78          8.437         0.8848         -30.92         -2.101         -109.4           63.5          12.02
    0.5663              -20.15          9.637          66.58          44.85          8.332         0.8184         -30.62         -1.807         -107.0          63.77          12.67
    0.5809              -20.56          9.526           66.7          44.93          8.203         0.7364         -30.25         -1.444         -104.0          64.11          13.47
    0.5954              -21.07          9.388          66.86          45.02          8.042         0.6342         -29.78        -0.9905         -100.4          64.53          14.46
    0.6099              -21.72          9.214          67.05          45.15          7.838         0.5054          -29.2        -0.4198         -95.76          65.06          15.72
    0.6244              -22.54          8.993           67.3           45.3           7.58         0.3418         -28.46         0.3058         -89.89          65.73          17.32
     0.639              -23.59          8.709          67.62           45.5          7.249         0.1323         -27.51          1.234         -82.38          66.59          19.36
    0.6535              -24.94          8.346          68.02          45.76          6.825        -0.1366         -26.29          2.426         -72.74           67.7          21.99
     0.668              -26.66          7.882          68.54          46.09          6.283          -0.48         -24.74          3.949         -60.43          69.11          25.34
    0.6825              -28.82          7.298           69.2           46.5          5.601        -0.9118         -22.78          5.863         -44.95          70.89          29.55
     0.697              -31.46          6.586           70.0          47.01          4.771         -1.438         -20.39          8.195         -26.08          73.05          34.69
    0.7116              -34.51          5.762          70.92          47.59          3.808         -2.048         -17.63           10.9         -4.213          75.56          40.64
    0.7261              -37.82          4.869          71.92          48.22          2.765         -2.708         -14.64          13.83          19.47          78.28          47.09
    0.7406              -41.13          3.976          72.92          48.85          1.723         -3.369         -11.64          16.75          43.15          80.99          53.53
    0.7551              -44.19          3.151          73.85          49.44         0.7598         -3.979         -8.881          19.46          65.01           83.5          59.49
    0.7696              -46.83          2.439          74.65          49.94       -0.07086         -4.505         -6.496          21.79          83.88          85.67          64.62
    0.7842              -48.99          1.856           75.3          50.35        -0.7525         -4.937          -4.54           23.7          99.36          87.44          68.84
    0.7987              -50.71          1.391          75.82          50.68         -1.295          -5.28         -2.983          25.23          111.7          88.85          72.19
    0.8132              -52.06          1.028          76.23          50.94         -1.719         -5.549         -1.765          26.42          121.3          89.96          74.81
    0.8277              -53.11         0.7445          76.55          51.14          -2.05         -5.759        -0.8157          27.35          128.8          90.82          76.86
    0.8423              -53.93         0.5232          76.79           51.3         -2.308         -5.922       -0.07404          28.07          134.7          91.49          78.45
    0.8568              -54.57         0.3491          76.99          51.42         -2.511         -6.051         0.5094          28.64          139.3          92.02          79.71
